<svg width="114" height="96" viewBox="0 0 114 96" fill="none" xmlns="http://www.w3.org/2000/svg">
<path d="M27.5897 92.4615C27.5897 82.6903 40.7916 74.7692 57.0769 74.7692C73.3622 74.7692 86.5641 82.6903 86.5641 92.4615M92.4615 58.5484C102.876 61.2785 110.154 67.5136 110.154 74.7686M21.6923 58.5484C11.278 61.2785 4 67.5136 4 74.7686M92.4615 34.8796C96.0811 31.64 98.359 26.9322 98.359 21.6923C98.359 11.9211 90.4379 4 80.6667 4C76.1353 4 72.0019 5.7035 68.8718 8.50501M21.6923 34.8796C18.0728 31.64 15.7949 26.9322 15.7949 21.6923C15.7949 11.9211 23.716 4 33.4872 4C38.0185 4 42.1519 5.7035 45.282 8.50501M74.7692 39.3846C74.7692 49.1558 66.8481 57.0769 57.0769 57.0769C47.3057 57.0769 39.3846 49.1558 39.3846 39.3846C39.3846 29.6134 47.3057 21.6923 57.0769 21.6923C66.8481 21.6923 74.7692 29.6134 74.7692 39.3846Z" stroke="#1F3576" stroke-width="7.07692" stroke-linecap="round" stroke-linejoin="round"/>
</svg>
