<svg width="88" height="87" viewBox="0 0 88 87" fill="none" xmlns="http://www.w3.org/2000/svg">
<path d="M83.6154 43.3654C83.6154 65.1063 65.7929 82.7308 43.8077 82.7308M83.6154 43.3654C83.6154 21.6245 65.7929 4 43.8077 4M83.6154 43.3654H4M43.8077 82.7308C21.8225 82.7308 4 65.1063 4 43.3654M43.8077 82.7308C51.1361 82.7308 57.0769 65.1063 57.0769 43.3654C57.0769 21.6245 51.1361 4 43.8077 4M43.8077 82.7308C36.4793 82.7308 30.5385 65.1063 30.5385 43.3654C30.5385 21.6245 36.4793 4 43.8077 4M4 43.3654C4 21.6245 21.8225 4 43.8077 4" stroke="#1F3576" stroke-width="7.07692" stroke-miterlimit="10" stroke-linecap="round" stroke-linejoin="round"/>
</svg>
